<?xml version="1.0" encoding="utf-8"?>
<!-- Generator: Adobe Illustrator 16.0.2, SVG Export Plug-In . SVG Version: 6.00 Build 0)  -->
<!DOCTYPE svg PUBLIC "-//W3C//DTD SVG 1.1//EN" "http://www.w3.org/Graphics/SVG/1.1/DTD/svg11.dtd">
<svg version="1.1" id="Layer_1" xmlns="http://www.w3.org/2000/svg" xmlns:xlink="http://www.w3.org/1999/xlink" x="0px" y="0px"
	 width="288.055px" height="256.283px" viewBox="0 0 288.055 256.283" enable-background="new 0 0 288.055 256.283"
	 xml:space="preserve">
<path fill="#fff" d="M144.194,58.969c20.207-0.031,36.612,16.326,36.644,36.533c0.03,20.207-16.326,36.613-36.533,36.643
	c-20.207,0.031-36.612-16.325-36.643-36.532c0-0.018,0-0.037,0-0.055c-0.031-20.176,16.301-36.558,36.477-36.588
	C144.157,58.969,144.175,58.969,144.194,58.969z"/>
<path fill="#fff" d="M123.215,137.181c6.393,3.539,13.562,5.441,20.868,5.536c7.321-0.122,14.5-2.022,20.923-5.536
	c12.842,11.514,32.437,24.355,32.437,60.391H90.779C90.779,161.537,110.374,148.695,123.215,137.181z"/>
<path fill="#fff" d="M276.043,0H12.012c-0.037,0-0.074,0-0.111,0C5.267,0.062-0.061,5.489,0,12.122v232.149c0,6.634,5.377,12.012,12.011,12.012
	h264.032c6.612-0.031,11.956-5.399,11.956-12.012h0.056V12.011C288.055,5.377,282.677,0,276.043,0z M259.936,217.591H27.954V27.953
	h231.982V217.591z"/>
</svg>
