<?xml version="1.0" encoding="utf-8"?>
<!-- Generator: Adobe Illustrator 16.0.2, SVG Export Plug-In . SVG Version: 6.00 Build 0)  -->
<!DOCTYPE svg PUBLIC "-//W3C//DTD SVG 1.1//EN" "http://www.w3.org/Graphics/SVG/1.1/DTD/svg11.dtd">
<svg version="1.1" id="Слой_1" xmlns="http://www.w3.org/2000/svg" xmlns:xlink="http://www.w3.org/1999/xlink" x="0px" y="0px"
	 width="13.3px" height="18.9px" viewBox="0 0 13.3 18.9" enable-background="new 0 0 13.3 18.9" xml:space="preserve">
<g>
	<g>
		<path fill="#dc1617" d="M6.7,4.2c-1.3,0-2.4,1.1-2.4,2.4C4.3,7.9,5.4,9,6.7,9C8,9,9.1,7.9,9.1,6.6C9.1,5.2,8,4.2,6.7,4.2L6.7,4.2z
			 M6.7,8.3C5.7,8.3,5,7.5,5,6.6s0.8-1.7,1.7-1.7c1,0,1.7,0.8,1.7,1.7S7.7,8.3,6.7,8.3L6.7,8.3z M6.7,8.3"/>
		<path fill="#dc1617" d="M11.3,1.9C10.1,0.7,8.4,0,6.6,0C4.9,0,3.2,0.7,1.9,1.9c-2.3,2.3-2.6,6.7-0.6,9.3l5.3,7.7l5.3-7.7
			C13.9,8.6,13.6,4.3,11.3,1.9L11.3,1.9z M11.4,10.9l-4.7,6.9l-4.8-6.9C0.1,8.5,0.3,4.5,2.4,2.4C3.6,1.3,5,0.7,6.6,0.7
			c1.6,0,3.1,0.6,4.2,1.7C12.9,4.5,13.2,8.5,11.4,10.9L11.4,10.9z M11.4,10.9"/>
	</g>
</g>
</svg>
