<?xml version="1.0" encoding="utf-8"?>
<!-- Generator: Adobe Illustrator 16.0.2, SVG Export Plug-In . SVG Version: 6.00 Build 0)  -->
<!DOCTYPE svg PUBLIC "-//W3C//DTD SVG 1.1//EN" "http://www.w3.org/Graphics/SVG/1.1/DTD/svg11.dtd">
<svg version="1.1" id="Layer_1" xmlns="http://www.w3.org/2000/svg" xmlns:xlink="http://www.w3.org/1999/xlink" x="0px" y="0px"
	 width="286.561px" height="287.27px" viewBox="0 0 286.561 287.27" enable-background="new 0 0 286.561 287.27"
	 xml:space="preserve">
<g>
	<path fill="#fff" d="M277.482,15.654H152.331V9.787c0.036-0.472,0.036-0.945,0-1.417c-0.392-4.998-4.761-8.733-9.759-8.342
		c-4.998,0.391-8.733,4.76-8.342,9.759v5.978H9.078c-0.019,0-0.037,0-0.056,0C4.04,15.765,0,19.805,0,24.788v29.724
		c0,0.019,0,0.037,0,0.056c0.031,4.983,4.095,8.998,9.078,8.967h5.978v154.987c-0.031,4.962,3.95,9.018,8.912,9.078h101.24
		l-33.931,45.223c-1.128,1.539-1.744,3.394-1.758,5.301c-0.038,5.014,3.996,9.108,9.009,9.146c2.845-0.004,5.526-1.335,7.251-3.598
		l28.451-37.973v32.548c0.349,4.454,3.887,7.993,8.342,8.342c4.999,0.392,9.368-3.344,9.759-8.342v-32.548l28.451,37.917
		c3.02,3.976,8.682,4.767,12.676,1.771c3.968-2.999,4.76-8.645,1.771-12.62l-33.876-45.224h101.24c4.983,0,9.022-4.04,9.022-9.022
		V63.534h5.867c4.992,0,9.048-4.03,9.078-9.022V24.788c0-0.019,0-0.037,0-0.056C286.561,19.718,282.496,15.654,277.482,15.654z
		 M253.57,209.555H32.99V63.534h220.58V209.555z M268.46,45.489H18.101V33.754H268.46V45.489z"/>
	<path fill="#fff" d="M68.693,108.314h29.835c4.455-0.349,7.993-3.887,8.342-8.342c0.391-4.998-3.344-9.367-8.342-9.758H68.693
		c-4.455,0.349-7.994,3.887-8.342,8.342C59.959,103.554,63.694,107.923,68.693,108.314z"/>
	<path fill="#fff" d="M68.693,138.149h134.23c4.454-0.349,7.993-3.887,8.342-8.342c0.391-4.998-3.344-9.367-8.342-9.758H68.693
		c-4.455,0.349-7.994,3.887-8.342,8.342C59.959,133.389,63.694,137.758,68.693,138.149z"/>
	<path fill="#fff" d="M68.693,167.93h89.505c0.006,0,0.012,0,0.018,0c4.982-0.006,9.019-4.049,9.014-9.031
		c-0.006-4.984-4.049-9.02-9.031-9.014H68.693c-4.976,0.004-9.009,4.037-9.014,9.014C59.674,163.881,63.709,167.924,68.693,167.93z"
		/>
</g>
</svg>
