<svg baseProfile="basic" xmlns="http://www.w3.org/2000/svg" viewBox="0 0 100 80.9"><path d="M67.5 25.5H7c-3.8 0-7 3.1-7 7v41.4c0 3.8 3.1 7 7 7h60.6c3.8 0 7-3.1 7-7V32.5c-.1-3.9-3.2-7-7.1-7zm2.6 48.4c0 1.4-1.2 2.6-2.6 2.6H7c-1.4 0-2.6-1.2-2.6-2.6V32.5c0-1.4 1.2-2.6 2.6-2.6h60.6c1.4 0 2.6 1.2 2.6 2.6v41.4z" fill="#FFF"/><path d="M87.2 65.9V19.7c0-3.8-3.1-7-7-7H11.7c-1.2 0-2.2 1-2.2 2.2 0 1.2 1 2.2 2.2 2.2h68.5c1.4 0 2.6 1.2 2.6 2.6v46.2c0 1.2 1 2.2 2.2 2.2 1.3 0 2.2-1 2.2-2.2z" fill="#FFF"/><path d="M93 0H24.5c-1.2 0-2.2 1-2.2 2.2 0 1.2 1 2.2 2.2 2.2H93c1.4 0 2.6 1.2 2.6 2.6v46.2c0 1.2 1 2.2 2.2 2.2 1.2 0 2.2-1 2.2-2.2V7c0-3.9-3.1-7-7-7zM47.2 53.2l-16.7-9.6v19.2" fill="#FFF"/><path d="M29.5 64.5V41.9l19.8 11.3-19.8 11.3zm2-19.1V61l13.7-7.8-13.7-7.8z" fill="#3354A4"/><path d="M28.3 62.8c0 .8.4 1.5 1.1 1.9.7.4 1.5.4 2.2 0l16.7-9.6c.7-.4 1.1-1.1 1.1-1.9 0-.8-.4-1.5-1.1-1.9l-16.7-9.6c-.3-.2-.7-.3-1.1-.3-.4 0-.8.1-1.1.3-.7.4-1.1 1.1-1.1 1.9v19.2z" fill="#FFF"/></svg>