<?xml version="1.0" standalone="no"?>
<!DOCTYPE svg PUBLIC "-//W3C//DTD SVG 20010904//EN"
 "http://www.w3.org/TR/2001/REC-SVG-20010904/DTD/svg10.dtd">
<svg version="1.0" xmlns="http://www.w3.org/2000/svg"
 width="700.000000pt" height="700.000000pt" viewBox="0 0 700.000000 700.000000"
 preserveAspectRatio="xMidYMid meet">
<metadata>
Created by potrace 1.11, written by Peter Selinger 2001-2013
</metadata>
<g transform="translate(0.000000,700.000000) scale(0.100000,-0.100000)"
fill="#000000" stroke="none">
<path d="M0 3500 l0 -3500 3500 0 3500 0 0 3500 0 3500 -3500 0 -3500 0 0
-3500z m3315 2995 c110 -23 189 -68 276 -155 60 -60 85 -95 117 -161 78 -164
75 -117 82 -1114 7 -968 6 -945 65 -1095 52 -130 128 -203 248 -238 l57 -17
-2 -199 -3 -199 -55 -14 c-145 -37 -227 -138 -282 -347 -21 -79 -22 -103 -28
-1001 -7 -1031 -2 -967 -82 -1134 -52 -109 -159 -220 -260 -269 -104 -51 -175
-62 -405 -62 l-203 0 0 229 0 229 99 4 c112 3 131 12 188 86 69 90 66 52 73
1022 7 922 7 912 54 1061 45 143 179 317 284 367 45 22 40 45 -17 81 -126 81
-239 245 -281 408 -35 138 -40 249 -40 1013 0 805 -2 826 -54 926 -33 64 -44
76 -90 108 -35 23 -48 26 -127 26 l-89 0 0 230 0 230 203 0 c139 0 224 -5 272
-15z"/>
</g>
</svg>
