<?xml version="1.0" encoding="utf-8"?>
<!-- Generator: Adobe Illustrator 16.0.2, SVG Export Plug-In . SVG Version: 6.00 Build 0)  -->
<!DOCTYPE svg PUBLIC "-//W3C//DTD SVG 1.1//EN" "http://www.w3.org/Graphics/SVG/1.1/DTD/svg11.dtd">
<svg version="1.1" id="Слой_1" xmlns="http://www.w3.org/2000/svg" xmlns:xlink="http://www.w3.org/1999/xlink" x="0px" y="0px"
	 width="267.8px" height="90.5px" viewBox="0 0 267.8 90.5" enable-background="new 0 0 267.8 90.5" xml:space="preserve">
<g>
	<polygon fill="#FFFFFF" points="56.4,70.2 69.8,0 82.5,0 69.1,70.2 	"/>
	<path fill="#FFFFFF" d="M111.7,68c-4.4,1.8-8.6,2.7-14.3,2.7c-12.2,0-16.8-8-16.8-18.7c0-14.4,8-32.3,23.8-32.3
		c9,0,13.1,6.7,13.2,13.5c0,13.6-11,18.7-24.7,18.3c-0.1,1.4,0,3.9,1.1,5.8c1.2,2,3.4,3.5,6.9,3.5c4.2,0,7.1-1,10-2.4L111.7,68z
		 M106.3,34.4c0-2.8-1.1-4.5-3.6-4.5c-3.9,0-7.3,5-8.7,12.1c6.7,0.3,12.3-2.3,12.3-7.5V34.4z"/>
	<path fill="#FFFFFF" d="M120,78.6c2,1.1,5.4,2,7.9,2c7.2,0,10.6-4.9,12.2-11.9l1.1-6H141c-3.4,5.4-7.2,7.3-11.2,7.3
		c-6.9,0-10.2-6.5-10.4-14.2c-0.3-15.7,8.9-36.1,27.2-36.1c5.7,0,10.6,1.2,14.1,2.9l-8,42.3c-1.6,8.7-4.3,15.4-8.5,19.6
		c-4.1,4-9.7,5.9-16.7,5.9c-3.8,0-8.7-1-10.6-2.2L120,78.6z M147,30.1c-0.7-0.4-1.5-0.6-2.6-0.6c-7.4,0-12.3,14.3-12.4,22.6
		c0,3.7,0.3,7.9,3.9,7.9c3.9,0,6.8-6.8,7.6-10.9L147,30.1z"/>
	<path fill="#FFFFFF" d="M160.8,70.2l9.5-49.6H183l-9.5,49.6H160.8z M178.4,14.6c-3.9,0-5.7-2.9-5.7-6.7c0.1-3.7,2.6-7.8,7.1-7.8
		c4.2,0,6.1,3.2,6,6.6C185.7,11.8,182.2,14.6,178.4,14.6L178.4,14.6z"/>
	<path fill="#FFFFFF" d="M223.6,37.1c0,15.6-8.3,33.9-23.5,33.9c-12.5,0-15.2-9.8-15.2-17.1c0-16.7,9.2-34.1,24.2-34.1
		C221.8,19.8,223.6,30.2,223.6,37.1z M197.5,53.2c0,3.7,0.1,8.1,4.1,8.1c6.1,0,9.5-16.8,9.5-25.8c0-3.4-0.9-6.2-3.9-6.2
		C201.7,29.4,197.4,44.7,197.5,53.2z"/>
	<path fill="#FFFFFF" d="M225.2,70.2l6.4-33.5c1.1-5.8,1.9-11.5,2.6-16.1h10.8l-0.5,6.4h0.2c3.4-4.7,8-7.2,13.4-7.2
		c7,0,9.6,4.8,9.6,10.8c0,2.9-0.5,6-1.2,9.4l-5.7,30.1h-12.7l5.9-30.8c0.3-1.7,0.6-3.3,0.6-5.3c0-2.3-1-4-3.2-4
		c-2.9,0-6.9,4.4-8.7,13.8l-5,26.3H225.2z"/>
	<path fill="#FFFFFF" d="M31.1,68c-4.4,1.8-8.6,2.7-14.3,2.7C4.7,70.8,0,62.8,0,52.1c0-14.4,8-32.3,23.8-32.3
		c9,0,13.1,6.7,13.2,13.5c0,13.6-11,18.7-24.8,18.3c-0.1,1.4,0,3.9,1.1,5.8c1.2,2,3.5,3.5,6.9,3.5c4.2,0,7.1-1,10-2.4L31.1,68z
		 M25.8,34.4c0-2.8-1.1-4.5-3.5-4.5c-3.9,0-7.3,5-8.7,12.1c6.7,0.3,12.3-2.3,12.3-7.5V34.4z"/>
	<g>
		<defs>
			<path id="SVGID_1_" d="M47,52.9c-3.8,0-6-2.8-6-6.8c0-3.9,3.1-7.7,6.7-7.7c4.1,0,6.3,2.8,6.3,6.7C54,50,50.7,52.9,47,52.9
				L47,52.9"/>
		</defs>
		<use xlink:href="#SVGID_1_"  overflow="visible" fill="#FFFFFF"/>
		<clipPath id="SVGID_2_">
			<use xlink:href="#SVGID_1_"  overflow="visible"/>
		</clipPath>
		<rect x="41" y="38.4" clip-path="url(#SVGID_2_)" fill="#FFFFFF" width="13" height="14.5"/>
		<path clip-path="url(#SVGID_2_)" fill="#FFFFFF" d="M54.4,45.7c0,3.8-3.1,6.9-6.9,6.9c-3.8,0-6.9-3.1-6.9-6.9
			c0-3.8,3.1-6.9,6.9-6.9C51.3,38.8,54.4,41.9,54.4,45.7z"/>
		<path clip-path="url(#SVGID_2_)" fill="#FFFFFF" d="M54,45.7c0,3.6-2.9,6.5-6.5,6.5c-3.6,0-6.5-2.9-6.5-6.5c0-3.6,2.9-6.5,6.5-6.5
			C51.1,39.2,54,42.1,54,45.7z"/>
		<path clip-path="url(#SVGID_2_)" fill="#FFFFFF" d="M53.6,45.7c0,3.4-2.7,6.1-6.1,6.1c-3.4,0-6.1-2.7-6.1-6.1
			c0-3.4,2.7-6.1,6.1-6.1C50.9,39.6,53.6,42.3,53.6,45.7z"/>
		<path clip-path="url(#SVGID_2_)" fill="#FFFFFF" d="M53.1,45.7c0,3.1-2.5,5.6-5.6,5.6c-3.1,0-5.6-2.5-5.6-5.6
			c0-3.1,2.5-5.6,5.6-5.6C50.6,40.1,53.1,42.6,53.1,45.7z"/>
	</g>
</g>
</svg>
