<svg id="Layer_1" xmlns="http://www.w3.org/2000/svg" viewBox="0 0 150.7 44.8"><style>.st0{fill:#FFFFFF;} .st1{fill:#dc1617;}</style><path class="st1" d="M9.3 30.9L7 25.1l-1.9-5.5h-.2v18.3H0V6.3h4.8l3.4 9 2.5 6.8h.2l2.5-7 3.4-8.8h4.7v31.6h-4.9V19.6h-.2l-2 5.6-2.2 5.7H9.3zM37.6 21.3c1.4.5 2.3 1.3 2.9 2.6s.8 2.7.8 4.4c0 3.3-.7 5.7-2.1 7.3-1.4 1.5-3.6 2.3-6.5 2.3h-6.5V6.3H33c2.8 0 4.8.7 6.1 2.2 1.3 1.5 1.9 3.6 1.9 6.4 0 1.5-.3 2.7-.7 3.8-.5 1.1-1.4 1.9-2.6 2.4v.2zm-1.3-6.4c0-1.5-.3-2.5-.9-3.1s-1.5-1-2.9-1H31V19h1.6c1.3 0 2.2-.3 2.8-1 .6-.7.9-1.7.9-3.1zm.2 12.9c0-1.5-.3-2.6-.8-3.3-.5-.7-1.5-1.1-2.9-1.1H31v9.8h2c.8 0 1.4-.1 1.9-.4.5-.3.8-.7 1.1-1.2.3-.5.4-1.1.5-1.7v-2.1zM45.6 37.8V6.3h4.9v27h8.8v4.6H45.6zM68.3 10.8v27h-4.9v-27h-5.1V6.3h15.1v4.6h-5.1z"/><path class="st0" d="M85.2 22.1c-.7-.3-1.3-.9-1.9-1.8-.6-.9-.9-2.2-.9-3.8V6.4c0-.9-.2-1.6-.5-2.2-.3-.6-.7-.8-1.2-.8h-1V0h2.5c1.3 0 2.3.5 3.2 1.4.9.9 1.3 2.2 1.3 3.8v10.7c0 1.4.2 2.6.7 3.4.4.9 1.1 1.4 2.1 1.5v3c-1 .1-1.7.6-2.1 1.4-.4.8-.7 2-.7 3.5v10.9c0 1.6-.4 2.9-1.3 3.8-.9.9-1.9 1.4-3.2 1.4h-2.5v-3.4h1c.5 0 .9-.2 1.2-.7.3-.5.5-1.2.5-2.1V27.9c0-1.6.3-2.9.9-3.8.6-.9 1.2-1.5 1.9-1.7v-.3z"/><path class="st0" d="M105.5 6.3c1.9 0 3.3.3 4.4 1 1.1.7 1.8 1.7 2.3 3.3.3 1.1.5 2.7.5 4.6V28.8c0 1.9-.2 3.4-.6 4.4-.6 1.8-1.5 3-2.7 3.7-1.3.7-2.7 1-4.3 1h-7.4V6.3h7.8zm2.3 8.2c0-1.2-.2-2.1-.7-2.7s-1.3-1-2.5-1h-2.1v22.4h2.1c1.2 0 2-.3 2.5-1s.7-1.6.7-2.8V14.5zM117.4 37.8V6.3h14v4.6h-9.1v8.6h7.9v4.7h-7.9v9.1h9.1v4.6h-14zM145.6 6.3h5.2l-6 31.6H139l-5.9-31.6h5.2l2.1 13 1.5 9.9h.2l1.5-9.9 2-13z"/></svg>