<?xml version="1.0" encoding="utf-8"?>
<!-- Generator: Adobe Illustrator 16.0.2, SVG Export Plug-In . SVG Version: 6.00 Build 0)  -->
<!DOCTYPE svg PUBLIC "-//W3C//DTD SVG 1.1//EN" "http://www.w3.org/Graphics/SVG/1.1/DTD/svg11.dtd">
<svg version="1.1" id="Слой_1" xmlns="http://www.w3.org/2000/svg" xmlns:xlink="http://www.w3.org/1999/xlink" x="0px" y="0px"
	 width="240.9px" height="94.4px" viewBox="0 0 240.9 94.4" enable-background="new 0 0 240.9 94.4" xml:space="preserve">
<g>
	<polygon fill="#FFFFFF" points="80.6,58.5 96.9,58.5 88.7,33.9 	"/>
	<path fill="#FFFFFF" d="M40,30.8H28v18.4h12c5.1,0,9.2-4.1,9.2-9.2C49.2,34.9,45.1,30.8,40,30.8z"/>
	<path fill="#FFFFFF" d="M0,0v94.4h240.9V0H0z M39.9,55.6H28v21h-7V24.4h18.9c8.6,0,15.6,7,15.6,15.6C55.5,48.6,48.6,55.6,39.9,55.6
		z M103.2,76.6l-4.1-11.8H78.4l-4,11.8h-7.3l18.2-52.2h7l18.3,52.2H103.2z M157.7,60.2c0,2.9-0.4,5.5-1.3,7.6
		c-0.9,2.1-2.1,3.9-3.7,5.3c-1.6,1.4-3.5,2.4-5.7,3.1c-2.2,0.7-4.7,1-7.5,1c-2.8,0-5.5-0.4-7.9-1.1c-2.5-0.8-4.7-2-6.6-3.6l3.5-5.5
		c1.4,1.2,3,2.1,4.9,2.7c1.9,0.6,3.9,1,5.8,1c3.5,0,6.3-0.9,8.3-2.8c2-1.8,3.1-5,3.1-9.3v-5.1h-16.4v-6.1h16.4v-5.1
		c0-4.4-1-7.5-3.1-9.3c-2.1-1.9-4.8-2.8-8.3-2.8c-2,0-3.9,0.3-5.8,1c-1.9,0.6-3.6,1.6-4.9,2.7l-3.5-5.5c2-1.6,4.2-2.8,6.6-3.6
		c2.4-0.7,5.1-1.1,7.9-1.1c2.8,0,5.3,0.3,7.5,1c2.2,0.7,4.2,1.7,5.7,3.1c1.6,1.4,2.8,3.1,3.7,5.3c0.9,2.2,1.3,4.7,1.3,7.6V60.2z
		 M172,20.9h-6.5v6.7h-3.6v-6.7h-6.6v-3.6h6.6v-6.6h3.6v6.6h6.5V20.9z M211.7,76.7l-15.1-25.8l-9.5,11.4v14.5h-7V24.4h7v27h0.5
		l22.1-27h8.4l-16.8,20.6l18.6,31.6H211.7z"/>
</g>
</svg>
