<svg id="Layer_1" data-name="Layer 1" xmlns="http://www.w3.org/2000/svg" viewBox="0 0 20 20"><defs><style>.cls-1{fill:#e44d4e;fill-rule:evenodd;}</style></defs><title>Same_social_icons</title><path class="cls-1" d="M18.9,0H1.1A1.1,1.1,0,0,0,0,1.1V18.9A1.1,1.1,0,0,0,1.1,20H7.28a.48.48,0,0,0,.25-.42c0-.24,0-.86,0-1.7-2.77.6-3.36-1.34-3.36-1.34a2.64,2.64,0,0,0-1.11-1.46c-.9-.62.07-.61.07-.61a2.09,2.09,0,0,1,1.53,1,2.12,2.12,0,0,0,2.9.83A2.13,2.13,0,0,1,8.18,15C6,14.75,3.64,13.9,3.64,10.08a3.85,3.85,0,0,1,1-2.67,3.58,3.58,0,0,1,.1-2.64s.84-.27,2.74,1a9.45,9.45,0,0,1,5,0c1.9-1.29,2.74-1,2.74-1a3.58,3.58,0,0,1,.1,2.64,3.85,3.85,0,0,1,1,2.67c0,3.83-2.33,4.67-4.55,4.92a2.38,2.38,0,0,1,.68,1.85c0,1.33,0,2.41,0,2.73a.48.48,0,0,0,.24.42H18.9A1.1,1.1,0,0,0,20,18.9V1.1A1.1,1.1,0,0,0,18.9,0Z"/></svg>