<svg id="Layer_1" data-name="Layer 1" xmlns="http://www.w3.org/2000/svg" viewBox="0 0 20 20"><defs><style>.cls-1{fill:#e44d4e;}.cls-2{fill:#dc1517;opacity:0.6;}.cls-3{fill:#e42b2c;}</style></defs><title>Same_social_icons</title><path class="cls-1" d="M0,1.21V18.79A1.21,1.21,0,0,0,1.21,20H12.5L6.65,14.15V5.3H8.9C8.9,5.4,11.65,8,11.65,8V5.3H13.9L20,11.35V1.21A1.21,1.21,0,0,0,18.79,0H1.21A1.21,1.21,0,0,0,0,1.21Z"/><path class="cls-2" d="M11.65,8.9V8S8.9,5.4,8.9,5.3V8.9Z"/><path class="cls-3" d="M11.65,8.9V8S8.9,5.4,8.9,5.3V8.9Z"/><path class="cls-2" d="M13.9,8.9v5.25H11.65v-3.6H8.9v3.6H6.65L12.5,20h6.32A1.18,1.18,0,0,0,20,18.82V11.35L13.9,5.3Z"/><path class="cls-3" d="M13.9,8.9v5.25H11.65v-3.6H8.9v3.6H6.65L12.5,20h6.29A1.21,1.21,0,0,0,20,18.79V11.35L13.9,5.3Z"/></svg>