<svg id="Layer_1" data-name="Layer 1" xmlns="http://www.w3.org/2000/svg" viewBox="0 0 20 20"><defs><style>.cls-1{fill:#e44d4e;}</style></defs><title>Same_social_icons</title><path class="cls-1" d="M18.9,0H1.1A1.1,1.1,0,0,0,0,1.1V18.9A1.1,1.1,0,0,0,1.1,20H18.9A1.1,1.1,0,0,0,20,18.9V1.1A1.1,1.1,0,0,0,18.9,0Zm-13,17H3V7.5h3ZM4.45,6.19A1.72,1.72,0,1,1,6.17,4.47,1.72,1.72,0,0,1,4.45,6.19ZM17,17h-3V12.4c0-1.11,0-2.53-1.54-2.53s-1.78,1.21-1.78,2.45V17h-3V7.5h2.84V8.8h0a3.12,3.12,0,0,1,2.81-1.54c3,0,3.56,2,3.56,4.55Z"/></svg>