<svg id="Layer_1" data-name="Layer 1" xmlns="http://www.w3.org/2000/svg" viewBox="0 0 20.02 20"><defs><style>.cls-1{fill:#e44d4e;}</style></defs><title>Same_social_icons</title><path class="cls-1" d="M18.9,0H1.11A1.1,1.1,0,0,0,0,1.1V18.9A1.1,1.1,0,0,0,1.11,20H18.9A1.1,1.1,0,0,0,20,18.9V1.1A1.1,1.1,0,0,0,18.9,0ZM15.77,7c0,.13,0,.26,0,.38a8.47,8.47,0,0,1-13,7.13,6,6,0,0,0,.71,0,6,6,0,0,0,3.7-1.27,3,3,0,0,1-2.78-2.07,3,3,0,0,0,1.34-.05A3,3,0,0,1,3.33,8.29v0a3,3,0,0,0,1.35.37,3,3,0,0,1-.92-4A8.45,8.45,0,0,0,9.89,7.76,3,3,0,0,1,15,5a6,6,0,0,0,1.89-.72A3,3,0,0,1,15.55,6a5.94,5.94,0,0,0,1.71-.47A6.06,6.06,0,0,1,15.77,7Z"/></svg>