<svg id="Layer_1" data-name="Layer 1" xmlns="http://www.w3.org/2000/svg" viewBox="0 0 20 20"><defs><style>.cls-1{fill:#e44d4e;}</style></defs><title>Same_social_icons</title><path class="cls-1" d="M18.9,0H1.1A1.1,1.1,0,0,0,0,1.1V18.9A1.1,1.1,0,0,0,1.1,20H18.9A1.1,1.1,0,0,0,20,18.9V1.1A1.1,1.1,0,0,0,18.9,0ZM16.58,14.06H14.8c-.58,0-.65-.42-1.72-1.44-.9-.89-1.28-1-1.5-1s-.33.15-.33.48V13.5c0,.4-.23.56-1.17.56a6,6,0,0,1-4.57-2.72c-1.95-2.62-2.44-4.58-2.44-5a.38.38,0,0,1,.4-.39H5.05c.41,0,.57.12.71.56.73,2.13,2,4,2.56,4,.21,0,.23-.17.23-.6V7.73c0-1-.59-1.14-.59-1.52a.28.28,0,0,1,.31-.27h2.54c.34,0,.39.12.39.53V9.41c0,.34.07.46.22.46s.35-.11.69-.48a14.35,14.35,0,0,0,1.9-3,.58.58,0,0,1,.6-.39H16.2c.31,0,.45.17.39.47a18.88,18.88,0,0,1-2,3.42c-.17.27-.24.41,0,.67s.7.69,1,1.12a4.29,4.29,0,0,1,1.32,2C16.93,14,16.76,14.06,16.58,14.06Z"/></svg>