<svg id="Layer_1" data-name="Layer 1" xmlns="http://www.w3.org/2000/svg" viewBox="0 0 20 20"><defs><style>.cls-1{fill:#e44d4e;fill-rule:evenodd;}</style></defs><title>Same_social_icons</title><path class="cls-1" d="M18.9,0H1.1A1.1,1.1,0,0,0,0,1.1V18.9A1.1,1.1,0,0,0,1.1,20H18.9A1.1,1.1,0,0,0,20,18.9V1.1A1.1,1.1,0,0,0,18.9,0ZM17.1,10.16a.2.2,0,0,1-.16.07H15.25v6.67a.24.24,0,0,1-.24.24H11.67a.24.24,0,0,1-.24-.24V12.14H8.57v4.76a.24.24,0,0,1-.24.24H5a.24.24,0,0,1-.17-.07.24.24,0,0,1-.07-.17V10.24H3.07a.24.24,0,0,1-.17-.07.24.24,0,0,1,0-.34l6.93-6.9a.24.24,0,0,1,.34,0l6.93,6.9A.25.25,0,0,1,17.1,10.16Z"/></svg>